Coordinates
version=1
nRows=32
nColumns=12
inDegrees=yes

Units are S.I. units (second, meters, Newtons, ...)
Angles are in degrees

endheader
time	SC_y	SC_z	SC_x	AC_y	AC_z	AC_x	GH_y	GH_z	GH_yy	EL_x	PS_y
       0.0              -33.45            4.4          77.24          67.69         -8.953         -9.996          83.29          74.96          166.0          66.01          159.2
   0.01835              -33.45          4.404          77.23          67.69         -8.953         -9.996          83.25          74.96          166.0          66.01          159.2
    0.0367              -33.45          4.408          77.23          67.68         -8.952         -9.996          83.21          74.96          165.9          66.01          159.2
   0.05505              -33.45          4.413          77.22          67.67         -8.952         -9.996          83.17          74.96          165.9          66.01          159.2
    0.0734              -33.45          4.418          77.21          67.67         -8.952         -9.996          83.13          74.96          165.8          66.01          159.2
   0.09176              -33.45          4.423           77.2          67.66         -8.951         -9.996          83.09          74.97          165.8           66.0          159.1
    0.1101              -33.45          4.429           77.2          67.65         -8.951         -9.995          83.04          74.97          165.8           66.0          159.1
    0.1285              -33.45          4.435          77.19          67.65          -8.95         -9.995          82.99          74.97          165.7           66.0          159.1
    0.1468              -33.45          4.441          77.18          67.64          -8.95         -9.995          82.93          74.97          165.7           66.0          159.1
    0.1652              -33.45          4.448          77.17          67.63         -8.949         -9.995          82.87          74.97          165.6           66.0          159.0
    0.1835              -33.45          4.456          77.16          67.62         -8.948         -9.995          82.81          74.97          165.6          65.99          159.0
    0.2019              -33.45          4.464          77.15          67.61         -8.948         -9.995          82.74          74.97          165.5          65.99          159.0
    0.2202              -33.45          4.473          77.13           67.6         -8.947         -9.994          82.67          74.97          165.4          65.99          158.9
    0.2386              -33.45          4.482          77.12          67.59         -8.946         -9.994          82.58          74.97          165.4          65.98          158.9
    0.2569              -33.45          4.492          77.11          67.57         -8.945         -9.994           82.5          74.97          165.3          65.98          158.9
    0.2753              -33.45          4.503          77.09          67.56         -8.944         -9.994           82.4          74.97          165.2          65.97          158.8
    0.2936              -33.45          4.515          77.07          67.54         -8.943         -9.993           82.3          74.97          165.1          65.97          158.8
     0.312              -33.45          4.528          77.05          67.53         -8.942         -9.993          82.19          74.98          165.0          65.96          158.7
    0.3303              -33.45          4.542          77.03          67.51         -8.941         -9.993          82.07          74.98          164.9          65.96          158.7
    0.3487              -33.45          4.558          77.01          67.49          -8.94         -9.992          81.94          74.98          164.8          65.95          158.6
     0.367              -33.45          4.575          76.99          67.47         -8.938         -9.992          81.79          74.98          164.7          65.95          158.5
    0.3854              -33.45          4.594          76.96          67.44         -8.937         -9.992          81.63          74.98          164.5          65.94          158.5
    0.4037              -33.45          4.615          76.93          67.42         -8.935         -9.991          81.45          74.99          164.4          65.93          158.4
    0.4221              -33.45          4.638           76.9          67.39         -8.933         -9.991          81.26          74.99          164.2          65.92          158.3
    0.4404              -33.45          4.664          76.86          67.35         -8.931          -9.99          81.04          74.99          164.0          65.91          158.2
    0.4588              -33.45          4.692          76.82          67.32         -8.929         -9.989          80.79          74.99          163.8           65.9          158.1
    0.4771              -33.45          4.724          76.78          67.28         -8.926         -9.989          80.52           75.0          163.5          65.89          157.9
    0.4955              -33.45           4.76          76.73          67.23         -8.923         -9.988          80.21           75.0          163.3          65.87          157.8
    0.5138              -33.45          4.801          76.67          67.18          -8.92         -9.987          79.86           75.0          163.0          65.86          157.6
    0.5322              -33.45          4.847           76.6          67.12         -8.916         -9.986          79.47          75.01          162.6          65.84          157.5
    0.5505              -33.45            4.9          76.53          67.05         -8.911         -9.984          79.02          75.02          162.2          65.82          157.2
    0.5689              -33.45          4.961          76.44          66.97         -8.906         -9.983           78.5          75.02          161.8           65.8          157.0
